FFmpeg version SVN-r25716, Copyright (c) 2000-2010 the FFmpeg developers  built on Nov 10 2010 12:23:18 with gcc 4.1.2 20080704 (Red Hat 4.1.2-48)  configuration: --enable-libmp3lame --enable-shared --disable-mmx --arch=x86_64  libavutil     50.33. 0 / 50.33. 0  libavcore      0.12. 1 /  0.12. 1  libavcodec    52.94. 4 / 52.94. 4  libavformat   52.84. 0 / 52.84. 0  libavdevice   52. 2. 2 / 52. 2. 2  libavfilter    1.59. 0 /  1.59. 0  libswscale     0.12. 0 /  0.12. 0Input #0, avi, from '/RAID10/data/converted_video_files/47377.avi':  Duration: 00:00:04.43, start: 0.000000, bitrate: 31565 kb/s    Stream #0.0: Video: msvideo1, rgb555le, 1024x1024, 30 tbr, 30 tbn, 30 tbc[buffer @ 0x2c36690] w:1024 h:1024 pixfmt:rgb555le[ffsink @ 0x2c36900] auto-inserting filter 'auto-inserted scaler 0' between the filter 'src' and the filter 'out'[scale @ 0x2c35810] w:1024 h:1024 fmt:rgb555le -> w:1024 h:1024 fmt:yuv420p flags:0x4Output #0, flv, to '/RAID10/data/converted_video_files/47377.flv':  Metadata:    encoder         : Lavf52.84.0    Stream #0.0: Video: flv, yuv420p, 1024x1024, q=2-31, 600 kb/s, 1k tbn, 24 tbcStream mapping:  Stream #0.0 -> #0.0Press [q] to stop encodingframe=    7 fps=  0 q=9.5 size=     629kB time=0.29 bitrate=17644.8kbits/s dup=0 drop=1    frame=   14 fps= 12 q=27.1 size=     733kB time=0.58 bitrate=10299.3kbits/s dup=0 drop=3    frame=   23 fps= 14 q=31.0 size=     819kB time=0.96 bitrate=7002.3kbits/s dup=0 drop=5    frame=   31 fps= 14 q=31.0 size=     950kB time=1.29 bitrate=6023.5kbits/s dup=0 drop=7    frame=   40 fps= 15 q=31.0 size=    1062kB time=1.67 bitrate=5217.3kbits/s dup=0 drop=9    frame=   49 fps= 15 q=24.8 size=    1115kB time=2.04 bitrate=4474.8kbits/s dup=0 drop=12    frame=   58 fps= 16 q=31.0 size=    1142kB time=2.42 bitrate=3870.2kbits/s dup=0 drop=14    frame=   67 fps= 16 q=31.0 size=    1194kB time=2.79 bitrate=3504.4kbits/s dup=0 drop=16    frame=   76 fps= 16 q=31.0 size=    1247kB time=3.17 bitrate=3226.6kbits/s dup=0 drop=18    frame=   85 fps= 16 q=24.8 size=    1300kB time=3.54 bitrate=3007.5kbits/s dup=0 drop=21    frame=   93 fps= 16 q=31.0 size=    1323kB time=3.88 bitrate=2797.8kbits/s dup=0 drop=23    frame=  102 fps= 16 q=31.0 size=    1374kB time=4.25 bitrate=2647.9kbits/s dup=0 drop=25    frame=  107 fps= 16 q=31.0 Lsize=    1390kB time=4.46 bitrate=2555.0kbits/s dup=0 drop=26    video:1389kB audio:0kB global headers:0kB muxing overhead 0.135174%